<svg width="43" height="30" viewBox="0 0 43 30" fill="none" xmlns="http://www.w3.org/2000/svg">
<rect width="43" height="30" rx="15" fill="#F5F5F5" fill-opacity="0.6"/>
<path d="M28.9773 13.3147C28.923 13.151 28.7783 13.0317 28.6041 13.0069L23.9817 12.3496L21.9147 8.25215C21.8368 8.09776 21.6761 8 21.5001 8C21.3241 8 21.1634 8.09776 21.0855 8.25215L19.0184 12.3496L14.3959 13.0069C14.2217 13.0317 14.077 13.1511 14.0226 13.3147C13.9683 13.4785 14.0136 13.6582 14.1397 13.7784L17.4845 16.9679L16.695 21.4712C16.6652 21.6409 16.7365 21.8125 16.8789 21.9136C17.0212 22.0148 17.21 22.0282 17.3658 21.948L21.5001 19.8219L25.6344 21.948C25.702 21.9828 25.776 22 25.8495 22C25.8499 22 25.8504 22 25.8508 22C26.1061 22 26.3132 21.7974 26.3132 21.5476C26.3132 21.5097 26.3084 21.4729 26.2995 21.4376L25.5157 16.9678L28.8604 13.7783C28.9864 13.6583 29.0318 13.4785 28.9773 13.3147ZM24.6962 16.4861C24.5872 16.59 24.5374 16.7397 24.5632 16.8865L25.2355 20.7209L21.7153 18.9106C21.5806 18.8413 21.4197 18.8413 21.2851 18.9106L17.7648 20.7209L18.4371 16.8865C18.4629 16.7397 18.4131 16.59 18.3042 16.4861L15.4561 13.7703L19.3921 13.2106C19.5427 13.1892 19.6729 13.0967 19.7402 12.9631L21.5003 9.47436L23.2603 12.9631C23.3277 13.0966 23.4579 13.1892 23.6084 13.2106L27.5443 13.7703L24.6962 16.4861Z" fill="#FFC700"/>
<path d="M24.6962 16.4861C24.5872 16.59 24.5374 16.7397 24.5632 16.8865L25.2355 20.7209L21.7153 18.9106C21.5806 18.8413 21.4197 18.8413 21.2851 18.9106L17.7648 20.7209L18.4371 16.8865C18.4629 16.7397 18.4131 16.59 18.3042 16.4861L15.4561 13.7703L19.3921 13.2106C19.5427 13.1892 19.6729 13.0967 19.7402 12.9631L21.5003 9.47436L23.2603 12.9631C23.3277 13.0966 23.4579 13.1892 23.6084 13.2106L27.5443 13.7703L24.6962 16.4861Z" fill="#FFC700"/>
</svg>
